<?xml version="1.0" encoding="UTF-8" standalone="no"?>
<svg id="svg2" xmlns:rdf="http://www.w3.org/1999/02/22-rdf-syntax-ns#" xmlns="http://www.w3.org/2000/svg" xml:space="preserve" height="258.6" width="238.47" version="1.1" xmlns:cc="http://creativecommons.org/ns#" viewBox="0 0 238.46667 258.60001" xmlns:dc="http://purl.org/dc/elements/1.1/"><metadata id="metadata8"><rdf:RDF><cc:Work rdf:about=""><dc:format>image/svg+xml</dc:format><dc:type rdf:resource="http://purl.org/dc/dcmitype/StillImage"/></cc:Work></rdf:RDF></metadata><g id="g10" transform="matrix(1.3333 0 0 -1.3333 0 258.6)"><g id="g12" fill="#fff" transform="scale(.1)"><path id="path14" d="m1277.9 1144.1c92.89 0 168.47 75.57 168.47 168.47 0 92.89-75.58 168.46-168.47 168.46s-168.47-75.57-168.47-168.46c0-92.9 75.58-168.47 168.47-168.47"/><path id="path16" d="m782.98 483.72c-97.78-129.03-183.4-194.46-254.5-194.46-71.101 0-156.73 65.429-254.5 194.46-53.75 70.96-143.96 208.95-143.96 335.78v184.39h230v-184.4c0-71.629 102.17-215.64 168.46-279.73 66.301 64.101 168.46 208.11 168.46 279.73v184.39h230v-92.07c21.536 39.926 49.661 75.797 82.949 106.1-33.288 30.31-61.413 66.18-82.949 106.11v-69.5h-230v258.01c0 92.89-75.562 168.47-168.46 168.47-92.886 0-168.46-75.58-168.46-168.47v-258.01h-230v884.96h-124.85v-1783.3h874.26v483.59c-30-62.94-68.21-118.79-96.45-156.07"/><path id="path18" d="m528.48 1711c172.16 0 319.13-109.76 374.71-262.97 55.571 153.2 202.55 262.96 374.71 262.96 60.19 0 117.26-13.48 168.47-37.48v265.97h-1086.4v-265.97c51.21 24 108.28 37.49 168.46 37.49"/><path id="path20" d="m1788.5 1939.5h-112.13v-626.95c0-116.62-50.36-221.68-130.46-294.62 80.1-72.932 130.46-178 130.46-294.61 0-219.72-178.75-398.47-398.47-398.47-60.19 0-117.26 13.492-168.47 37.48v-206.22h679.07v1783.3"/><path id="path22" d="m1277.9 554.84c92.89 0 168.47 75.582 168.47 168.47 0 92.89-75.58 168.47-168.47 168.47s-168.47-75.582-168.47-168.47c0-92.887 75.58-168.47 168.47-168.47"/><path id="path24" d="m68.055 52.582c-0.125 3.3594-0.6914 6.4961-1.707 9.4493-1.0235 2.9375-2.5274 5.4882-4.5039 7.6484-1.9805 2.1601-4.4415 3.8711-7.379 5.1289-2.9492 1.2617-6.3984 1.8906-10.355 1.8906-3.6016 0-6.9922-0.6289-10.176-1.8906-3.1797-1.2578-5.9375-2.9688-8.2773-5.1289-2.3477-2.1602-4.2579-4.7109-5.7618-7.6484-1.5039-2.9532-2.375-6.0899-2.6093-9.4493zm17.289-6.8515v-2.8789c0-0.961-0.0704-1.9219-0.1875-2.8828h-67.871c0.1171-3.5704 0.9296-6.9375 2.4336-10.098 1.4921-3.1602 3.5039-5.9102 6.0234-8.2305s5.4297-4.1406 8.7305-5.4492c3.3007-1.3125 6.8164-1.9609 10.539-1.9609 5.7617 0 10.742 1.2578 14.941 3.7812 4.1992 2.5196 7.5 5.5664 9.8985 9.1797l11.887-9.543c-4.562-6.046-9.933-10.5-16.113-13.359-6.18-2.8476-13.055-4.289-20.613-4.289-6.485 0-12.492 1.0781-18.008 3.2383-5.52 2.1601-10.266 5.2031-14.223 9.0897-3.9607 3.902-7.0857 8.621-9.363 14.133-2.2852 5.527-3.418 11.648-3.418 18.367 0 6.6133 1.1133 12.703 3.332 18.281 2.2227 5.582 5.3203 10.352 9.2969 14.312 3.9649 3.9687 8.6602 7.0469 14.07 9.2695 5.4102 2.2305 11.25 3.3281 17.5 3.3281 6.2617 0 11.934-1.0195 17.051-3.0586 5.1172-2.039 9.4453-4.9804 12.988-8.8203 3.5547-3.8398 6.289-8.4922 8.2148-13.949 1.9219-5.4726 2.8907-11.609 2.8907-18.461"/><path id="path26" d="m216.06 2.3398h-18.367l-34.75 85.352h18.722l25.028-67.16h0.363l25.207 67.16h18.008l-34.21-85.352"/><path id="path28" d="m396.27 52.582c-0.125 3.3594-0.696 6.4961-1.707 9.4493-1.028 2.9375-2.532 5.4882-4.504 7.6484-1.985 2.1601-4.446 3.8711-7.383 5.1289-2.949 1.2617-6.399 1.8906-10.352 1.8906-3.601 0-6.992-0.6289-10.176-1.8906-3.183-1.2578-5.937-2.9688-8.281-5.1289-2.344-2.1602-4.258-4.7109-5.762-7.6484-1.503-2.9532-2.375-6.0899-2.609-9.4493zm17.285-6.8515v-2.8789c0-0.961-0.071-1.9219-0.188-2.8828h-67.871c0.117-3.5704 0.93-6.9375 2.434-10.098 1.496-3.1602 3.508-5.9102 6.023-8.2305 2.524-2.3203 5.434-4.1406 8.735-5.4492 3.296-1.3125 6.816-1.9609 10.535-1.9609 5.761 0 10.742 1.2578 14.941 3.7812 4.199 2.5196 7.5 5.5664 9.902 9.1797l11.883-9.543c-4.56-6.046-9.93-10.5-16.11-13.359-6.18-2.8476-13.06-4.289-20.62-4.289-6.485 0-12.493 1.0781-18.008 3.2383-5.52 2.1602-10.266 5.2031-14.219 9.0898-3.965 3.9024-7.09 8.6211-9.363 14.133-2.285 5.5274-3.418 11.648-3.418 18.367 0 6.6133 1.109 12.703 3.328 18.281 2.227 5.582 5.32 10.352 9.297 14.312 3.965 3.9687 8.664 7.0469 14.07 9.2695 5.41 2.2305 11.25 3.3281 17.5 3.3281 6.262 0 11.938-1.0195 17.055-3.0586 5.113-2.039 9.441-4.9804 12.984-8.8203 3.559-3.8398 6.289-8.4922 8.215-13.949 1.926-5.4726 2.891-11.609 2.891-18.461"/><path id="path30" d="m519.41 87.691c0.242-2.1601 0.422-4.5898 0.547-7.3008 0.117-2.6992 0.176-4.9492 0.176-6.75h0.539c1.082 2.2813 2.547 4.4102 4.414 6.3907 1.863 1.9804 3.992 3.7187 6.394 5.2187 2.395 1.5 5.039 2.6719 7.918 3.5117 2.883 0.8399 5.879 1.2578 9.004 1.2578 5.52 0 10.266-0.9297 14.223-2.7812 3.965-1.8672 7.266-4.3594 9.898-7.4688 2.641-3.1289 4.59-6.789 5.852-10.988 1.262-4.1993 1.894-8.6993 1.894-13.512v-52.929h-16.92v47.359c0 3.4727-0.278 6.7696-0.813 9.9024-0.535 3.1093-1.531 5.8789-2.969 8.2773-1.445 2.4024-3.425 4.3203-5.949 5.7617-2.516 1.4414-5.762 2.1602-9.715 2.1602-6.726 0-12.218-2.5508-16.472-7.6602-4.27-5.0898-6.399-11.91-6.399-20.43v-45.371h-16.92v66.98c0 2.2813-0.054 5.2188-0.171 8.8203-0.122 3.5977-0.305 6.7813-0.54 9.5508h16.016"/><path id="path32" d="m738.52 52.582c-0.125 3.3594-0.691 6.4961-1.707 9.4493-1.023 2.9375-2.531 5.4882-4.503 7.6484-1.981 2.1601-4.442 3.8711-7.379 5.1289-2.954 1.2617-6.399 1.8906-10.356 1.8906-3.601 0-6.988-0.6289-10.176-1.8906-3.179-1.2578-5.933-2.9688-8.281-5.1289-2.344-2.1602-4.258-4.7109-5.762-7.6484-1.504-2.9532-2.371-6.0899-2.605-9.4493zm17.29-6.8515v-2.8789c0-0.961-0.071-1.9219-0.188-2.8828h-67.871c0.117-3.5704 0.93-6.9375 2.434-10.098 1.492-3.1602 3.503-5.9102 6.023-8.2305 2.519-2.3203 5.43-4.1406 8.73-5.4492 3.301-1.3125 6.817-1.9609 10.539-1.9609 5.758 0 10.743 1.2578 14.942 3.7812 4.195 2.5196 7.5 5.5664 9.898 9.1797l11.887-9.543c-4.57-6.046-9.94-10.5-16.12-13.359-6.18-2.8476-13.05-4.289-20.61-4.289-6.488 0-12.492 1.0781-18.007 3.2383-5.52 2.1602-10.266 5.2031-14.219 9.0898-3.969 3.9024-7.094 8.6211-9.367 14.133-2.285 5.5274-3.418 11.648-3.418 18.367 0 6.6133 1.113 12.703 3.332 18.281 2.222 5.582 5.32 10.352 9.297 14.312 3.965 3.9687 8.66 7.0469 14.07 9.2695 5.41 2.2305 11.25 3.3281 17.5 3.3281 6.262 0 11.934-1.0195 17.051-3.0586 5.117-2.039 9.441-4.9804 12.988-8.8203 3.555-3.8398 6.289-8.4922 8.215-13.949 1.922-5.4726 2.891-11.609 2.891-18.461"/><path id="path34" d="m873.29 85.25c4.734 3.1797 10.352 4.7695 16.824 4.7695 5.762 0 10.957-1.3203 15.574-3.9609 4.622-2.6367 8.254-7.0195 10.891-13.137 2.883 5.5195 6.902 9.75 12.07 12.688 5.157 2.9414 10.801 4.4101 16.922 4.4101 5.52 0 10.266-0.9297 14.223-2.7812 3.965-1.8672 7.266-4.3594 9.898-7.4688 2.641-3.1289 4.59-6.789 5.852-10.988 1.262-4.1993 1.894-8.6993 1.894-13.512v-52.93h-16.91v47.359c0 3.4727-0.305 6.7696-0.903 9.9024-0.601 3.1093-1.621 5.8789-3.062 8.2773-1.438 2.4024-3.364 4.3203-5.762 5.7617-2.402 1.4414-5.461 2.1602-9.184 2.1602-3.836 0-7.136-0.8125-9.898-2.4297-2.766-1.6211-5.012-3.7227-6.75-6.3008-1.746-2.5898-3.008-5.4922-3.777-8.7305-0.786-3.2382-1.172-6.539-1.172-9.8984v-46.101h-16.92v50.769c0 3.3594-0.305 6.4219-0.898 9.1797-0.606 2.7695-1.622 5.1406-3.067 7.1211-1.433 1.9804-3.301 3.539-5.574 4.6796-2.285 1.1407-5.109 1.711-8.469 1.711-6.238 0-11.433-2.5508-15.574-7.6602-4.145-5.0898-6.211-11.91-6.211-20.43v-45.371h-16.93v66.98c0 2.2813-0.058 5.2188-0.176 8.8203-0.117 3.5977-0.3 6.7813-0.539 9.5508h16.02c0.242-2.1601 0.418-4.5898 0.547-7.3008 0.117-2.6992 0.176-4.9492 0.176-6.75h0.535c2.168 4.5586 5.617 8.4297 10.363 11.609"/><path id="path36" d="m1135.7 52.582c-0.12 3.3594-0.69 6.4961-1.71 9.4493-1.02 2.9375-2.52 5.4882-4.5 7.6484-1.98 2.1601-4.44 3.8711-7.38 5.1289-2.95 1.2617-6.4 1.8906-10.35 1.8906-3.61 0-6.99-0.6289-10.18-1.8906-3.18-1.2578-5.94-2.9688-8.28-5.1289-2.34-2.1602-4.26-4.7109-5.76-7.6484-1.5-2.9532-2.37-6.0899-2.61-9.4493zm17.29-6.8515v-2.8789c0-0.961-0.07-1.9219-0.19-2.8828h-67.87c0.12-3.5704 0.93-6.9375 2.43-10.098 1.5-3.1602 3.51-5.9102 6.03-8.2305s5.43-4.1406 8.73-5.4492c3.3-1.3125 6.82-1.9609 10.54-1.9609 5.76 0 10.74 1.2578 14.94 3.7812 4.2 2.5196 7.5 5.5664 9.9 9.1797l11.89-9.543c-4.6-6.046-10-10.5-16.1-13.359-6.2-2.8476-13.1-4.289-20.7-4.289-6.49 0-12.49 1.0781-18.01 3.2383s-10.26 5.2031-14.22 9.0898c-3.96 3.9024-7.09 8.6211-9.37 14.133-2.28 5.5274-3.41 11.648-3.41 18.367 0 6.6133 1.11 12.703 3.33 18.281 2.22 5.582 5.32 10.352 9.29 14.312 3.97 3.9687 8.67 7.0469 14.08 9.2695 5.41 2.2305 11.25 3.3281 17.5 3.3281 6.26 0 11.93-1.0195 17.05-3.0586 5.11-2.039 9.44-4.9804 12.99-8.8203 3.55-3.8398 6.28-8.4922 8.21-13.949 1.92-5.4726 2.89-11.609 2.89-18.461"/><path id="path38" d="m1258.8 87.691c0.24-2.1601 0.42-4.5898 0.54-7.3008 0.12-2.6992 0.18-4.9492 0.18-6.75h0.54c1.08 2.2813 2.55 4.4102 4.41 6.3907 1.87 1.9804 4 3.7187 6.4 5.2187 2.39 1.5 5.04 2.6719 7.92 3.5117 2.88 0.8399 5.88 1.2578 9 1.2578 5.52 0 10.27-0.9297 14.22-2.7812 3.97-1.8672 7.27-4.3594 9.9-7.4688 2.64-3.1289 4.59-6.789 5.85-10.988 1.26-4.1993 1.9-8.6993 1.9-13.512v-52.929h-16.93v47.359c0 3.4727-0.27 6.7696-0.81 9.9024-0.53 3.1093-1.53 5.8789-2.97 8.2773-1.44 2.4024-3.42 4.3203-5.94 5.7617s-5.76 2.1602-9.72 2.1602c-6.73 0-12.22-2.5508-16.47-7.6602-4.27-5.0898-6.4-11.91-6.4-20.43v-45.371h-16.92v66.98c0 2.2813-0.06 5.2188-0.18 8.8203-0.12 3.5977-0.3 6.7813-0.54 9.5508h16.02"/><path id="path40" d="m1457.3 73.82h-22.69v-44.34c0-5.1407 0.96-8.8203 2.88-11.031 1.92-2.2187 4.97-3.3203 9.18-3.3203 1.55 0 3.24 0.1602 5.04 0.4922 1.8 0.3281 3.42 0.8203 4.86 1.4883l0.54-13.871c-2.04-0.71875-4.29-1.2891-6.75-1.707-2.46-0.42187-5.02-0.62109-7.65-0.62109-8.04 0-14.19 2.2109-18.46 6.6602-4.26 4.4297-6.39 11.09-6.39 19.98v46.27h-16.38v13.871h16.38v24.481h16.75v-24.479h22.69v-13.871"/><path id="path42" d="m1604.4 52.582c-0.13 3.3594-0.7 6.4961-1.71 9.4493-1.03 2.9375-2.53 5.4882-4.51 7.6484-1.98 2.1601-4.44 3.8711-7.38 5.1289-2.95 1.2617-6.39 1.8906-10.35 1.8906-3.6 0-6.99-0.6289-10.18-1.8906-3.18-1.2578-5.93-2.9688-8.28-5.1289-2.34-2.1602-4.25-4.7109-5.76-7.6484-1.5-2.9532-2.37-6.0899-2.61-9.4493zm17.28-6.8515v-2.8789c0-0.961-0.07-1.9219-0.18-2.8828h-67.88c0.12-3.5704 0.93-6.9375 2.44-10.098 1.49-3.1602 3.5-5.9102 6.02-8.2305s5.43-4.1406 8.73-5.4492c3.3-1.3125 6.82-1.9609 10.54-1.9609 5.76 0 10.74 1.2578 14.94 3.7812 4.2 2.5196 7.5 5.5664 9.9 9.1797l11.89-9.543c-4.6-6.046-10-10.5-16.2-13.359-6.2-2.8476-13-4.289-20.6-4.289-6.49 0-12.49 1.0781-18.01 3.2383s-10.26 5.2031-14.22 9.0898c-3.96 3.9024-7.09 8.6211-9.36 14.133-2.29 5.5274-3.42 11.648-3.42 18.367 0 6.6133 1.11 12.703 3.33 18.281 2.23 5.582 5.32 10.352 9.3 14.312 3.96 3.9687 8.66 7.0469 14.07 9.2695 5.41 2.2305 11.25 3.3281 17.5 3.3281 6.26 0 11.93-1.0195 17.05-3.0586 5.12-2.039 9.44-4.9804 12.99-8.8203 3.55-3.8398 6.29-8.4922 8.21-13.949 1.92-5.4726 2.89-11.609 2.89-18.461"/><path id="path44" d="m1727.5 87.691c0.24-2.1601 0.42-4.5898 0.55-7.3008 0.11-2.6992 0.17-4.9492 0.17-6.75h0.54c1.08 2.2813 2.55 4.4102 4.41 6.3907 1.87 1.9804 4 3.7187 6.4 5.2187 2.39 1.5 5.04 2.6719 7.92 3.5117 2.88 0.8399 5.88 1.2578 9 1.2578 5.52 0 10.27-0.9297 14.22-2.7812 3.97-1.8672 7.27-4.3594 9.91-7.4688 2.63-3.1289 4.59-6.789 5.85-10.988 1.26-4.1993 1.89-8.6993 1.89-13.512v-52.929h-16.92v47.359c0 3.4727-0.28 6.7696-0.81 9.9024-0.54 3.1093-1.54 5.8789-2.97 8.2773-1.45 2.4024-3.43 4.3203-5.95 5.7617s-5.76 2.1602-9.72 2.1602c-6.73 0-12.21-2.5508-16.47-7.6602-4.27-5.0898-6.4-11.91-6.4-20.43v-45.371h-16.92v66.98c0 2.2813-0.06 5.2188-0.18 8.8203-0.12 3.5977-0.3 6.7813-0.54 9.5508h16.02"/></g></g></svg>
